<svg width="36" height="34" viewBox="0 0 36 34" fill="none" xmlns="http://www.w3.org/2000/svg">
<path d="M4 33.0001C2.89543 33.0001 2 32.1047 2 31.0001V3.00011C2 1.89554 2.89543 1.00011 4 1.00011H12.6107C14.7163 1.00011 15.3922 3.83501 13.513 4.785L10.3912 6.36312C10.1115 6.50455 9.8024 6.57823 9.48893 6.57823H6.49939C5.39482 6.57823 4.49939 7.47366 4.49939 8.57823V12.2032C4.49939 13.3078 5.39482 14.2032 6.49939 14.2032H11C12.1046 14.2032 13 15.0987 13 16.2032V17.7814C13 18.8859 12.1046 19.7814 11 19.7814H6.49939C5.39482 19.7814 4.49939 20.6768 4.49939 21.7814V25.422C4.49939 26.5266 5.39482 27.422 6.49939 27.422H7.98882C9.09339 27.422 9.98882 28.3174 9.98882 29.422V31.0001C9.98882 32.1047 9.09339 33.0001 7.98882 33.0001H4Z" fill="black"/>
<path d="M14.1306 31.8339C14.0506 32.4994 13.4861 33.0001 12.8159 33.0001V33.0001C12.0181 33.0001 11.4014 32.2998 11.5023 31.5084L15.1894 2.59749C15.3058 1.68435 16.0829 1.00011 17.0034 1.00011V1.00011C17.9241 1.00011 18.7012 1.68453 18.8175 2.59781L22.4993 31.5087C22.6001 32.3 21.9835 33.0001 21.1857 33.0001V33.0001C20.5154 33.0001 19.9508 32.4992 19.871 31.8336L17.0552 8.35846C17.0521 8.3323 17.0299 8.31261 17.0036 8.31261V8.31261C16.9772 8.31261 16.955 8.33229 16.9519 8.35845L14.1306 31.8339ZM13.823 22.422C13.823 21.3174 14.7185 20.422 15.823 20.422H18.1494C19.254 20.422 20.1494 21.3174 20.1494 22.422V23.7032C20.1494 24.8078 19.254 25.7032 18.1494 25.7032H15.823C14.7185 25.7032 13.823 24.8078 13.823 23.7032V22.422Z" fill="black"/>
<path d="M32.3512 0.748194C33.3097 0.872789 34 1.70269 34 2.66926V31.785C34 32.4561 33.456 33.0001 32.7849 33.0001V33.0001C32.2297 33.0001 31.745 32.6237 31.6077 32.0857L26.7074 12.8962C26.7019 12.8746 26.6825 12.8595 26.6602 12.8595V12.8595C26.6333 12.8595 26.6115 12.8813 26.6115 12.9082V31.2285C26.6115 32.2398 25.8567 33.0919 24.8529 33.2139L24.7414 33.2275C23.5499 33.3724 22.5 32.4424 22.5 31.2421V7.80144C22.5 5.85005 25.0086 5.05385 26.1339 6.64808L28.2907 9.70354C28.4291 9.89958 28.5311 10.1189 28.5918 10.3511L31.3978 21.0851C31.404 21.1087 31.4252 21.1251 31.4496 21.1251V21.1251C31.4824 21.1251 31.5079 21.0979 31.5028 21.0654C31.3189 19.8973 28.5 1.96751 28.5 1.00011C28.5 0.363214 30.731 0.537589 32.3512 0.748194Z" fill="black"/>
</svg>
