<svg width="32" height="33" viewBox="0 0 32 33" fill="none" xmlns="http://www.w3.org/2000/svg">
<path d="M2 32.4444C0.895431 32.4444 0 31.549 0 30.4444V2.44444C0 1.33987 0.895431 0.444444 2 0.444444H10.6107C12.7163 0.444444 13.3922 3.27935 11.513 4.22934L8.39124 5.80746C8.11149 5.94888 7.8024 6.02257 7.48893 6.02257H4.49939C3.39482 6.02257 2.49939 6.918 2.49939 8.02257V11.6476C2.49939 12.7521 3.39482 13.6476 4.49939 13.6476H9C10.1046 13.6476 11 14.543 11 15.6476V17.2257C11 18.3303 10.1046 19.2257 9 19.2257H4.49939C3.39482 19.2257 2.49939 20.1211 2.49939 21.2257V24.8663C2.49939 25.9709 3.39482 26.8663 4.49939 26.8663H5.98882C7.09339 26.8663 7.98882 27.7618 7.98882 28.8663V30.4444C7.98882 31.549 7.09339 32.4444 5.98882 32.4444H2Z" fill="black"/>
<path d="M12.1306 31.2783C12.0506 31.9437 11.4861 32.4444 10.8159 32.4444V32.4444C10.0181 32.4444 9.40142 31.7442 9.50234 30.9528L13.1894 2.04183C13.3058 1.12869 14.0829 0.444444 15.0034 0.444444V0.444444C15.9241 0.444444 16.7012 1.12887 16.8175 2.04215L20.4993 30.953C20.6001 31.7443 19.9835 32.4444 19.1857 32.4444V32.4444C18.5154 32.4444 17.9508 31.9435 17.871 31.278L15.0552 7.8028C15.0521 7.77664 15.0299 7.75694 15.0036 7.75694V7.75694C14.9772 7.75694 14.955 7.77663 14.9519 7.80279L12.1306 31.2783ZM11.823 21.8663C11.823 20.7618 12.7185 19.8663 13.823 19.8663H16.1494C17.254 19.8663 18.1494 20.7618 18.1494 21.8663V23.1476C18.1494 24.2521 17.254 25.1476 16.1494 25.1476H13.823C12.7185 25.1476 11.823 24.2521 11.823 23.1476V21.8663Z" fill="black"/>
<path d="M30.3512 0.19253C31.3097 0.317125 32 1.14702 32 2.1136V31.2294C32 31.9004 31.456 32.4444 30.7849 32.4444V32.4444C30.2297 32.4444 29.745 32.068 29.6077 31.53L24.7074 12.3405C24.7019 12.3189 24.6825 12.3038 24.6602 12.3038V12.3038C24.6333 12.3038 24.6115 12.3256 24.6115 12.3526V30.6729C24.6115 31.6841 23.8567 32.5362 22.8529 32.6583L22.7414 32.6718C21.5499 32.8167 20.5 31.8867 20.5 30.6864V7.24578C20.5 5.29439 23.0086 4.49819 24.1339 6.09241L26.2907 9.14788C26.4291 9.34392 26.5311 9.56326 26.5918 9.79541L29.3978 20.5295C29.404 20.553 29.4252 20.5694 29.4496 20.5694V20.5694C29.4824 20.5694 29.5079 20.5422 29.5028 20.5097C29.3189 19.3417 26.5 1.41184 26.5 0.444444C26.5 -0.19245 28.731 -0.0180752 30.3512 0.19253Z" fill="black"/>
</svg>
